name rise38.3101peak57.3503fall81.6963.mot
datacolumns 19
datarows 33
range 8.89496700000000 8.94830600000000
endheader
time	ground_force1_vx	ground_force1_vy	ground_force1_vz	ground_force1_px	ground_force1_py	ground_force1_pz	ground_force2_vx	ground_force2_vy	ground_force2_vz	ground_force2_px	ground_force2_py	ground_force2_pz	ground_torque1_x	ground_torque1_y	ground_torque1_z	ground_torque2_x	ground_torque2_y	ground_torque2_z	
8.89496700000000	69.44907300000000	750.62834499999997	48.64267200000000	0.35530000000000	0.00000000000000	0.08196100000000	0.00000000000000	0.00000000000000	0.00000000000000	0.00000000000000	0.00000000000000	0.00000000000000	0.00000000000000	22.40966500000000	0.00000000000000	0.00000000000000	0.00000000000000	0.00000000000000	
8.89663700000000	68.66800300000000	752.20283600000005	48.72249400000000	0.35391300000000	0.00000000000000	0.08200100000000	0.00000000000000	0.00000000000000	0.00000000000000	0.00000000000000	0.00000000000000	0.00000000000000	0.00000000000000	22.43371600000000	0.00000000000000	0.00000000000000	0.00000000000000	0.00000000000000	
8.89830500000000	67.89419599999999	753.69889300000000	48.80501100000000	0.35255300000000	0.00000000000000	0.08203900000000	0.00000000000000	0.00000000000000	0.00000000000000	0.00000000000000	0.00000000000000	0.00000000000000	0.00000000000000	22.46093100000000	0.00000000000000	0.00000000000000	0.00000000000000	0.00000000000000	
8.89996600000000	67.12833200000000	755.11640899999998	48.88993500000000	0.35122200000000	0.00000000000000	0.08207700000000	0.00000000000000	0.00000000000000	0.00000000000000	0.00000000000000	0.00000000000000	0.00000000000000	0.00000000000000	22.49114900000000	0.00000000000000	0.00000000000000	0.00000000000000	0.00000000000000	
8.90164400000000	66.37101199999999	756.45524999999998	48.97691100000000	0.34992100000000	0.00000000000000	0.08211400000000	0.00000000000000	0.00000000000000	0.00000000000000	0.00000000000000	0.00000000000000	0.00000000000000	0.00000000000000	22.52416000000000	0.00000000000000	0.00000000000000	0.00000000000000	0.00000000000000	
8.90330500000000	65.62276100000000	757.71526700000004	49.06551900000000	0.34864900000000	0.00000000000000	0.08215000000000	0.00000000000000	0.00000000000000	0.00000000000000	0.00000000000000	0.00000000000000	0.00000000000000	0.00000000000000	22.55971300000000	0.00000000000000	0.00000000000000	0.00000000000000	0.00000000000000	
8.90496700000000	64.88402800000000	758.89630699999998	49.15528300000000	0.34740700000000	0.00000000000000	0.08218500000000	0.00000000000000	0.00000000000000	0.00000000000000	0.00000000000000	0.00000000000000	0.00000000000000	0.00000000000000	22.59751500000000	0.00000000000000	0.00000000000000	0.00000000000000	0.00000000000000	
8.90663400000000	64.15518899999999	759.99822200000006	49.24567500000000	0.34619700000000	0.00000000000000	0.08221800000000	0.00000000000000	0.00000000000000	0.00000000000000	0.00000000000000	0.00000000000000	0.00000000000000	0.00000000000000	22.63723900000000	0.00000000000000	0.00000000000000	0.00000000000000	0.00000000000000	
8.90830400000000	63.43655300000000	761.02087900000004	49.33612100000000	0.34501700000000	0.00000000000000	0.08225000000000	0.00000000000000	0.00000000000000	0.00000000000000	0.00000000000000	0.00000000000000	0.00000000000000	0.00000000000000	22.67852500000000	0.00000000000000	0.00000000000000	0.00000000000000	0.00000000000000	
8.90996900000000	62.72835800000000	761.96417199999996	49.42601000000000	0.34386800000000	0.00000000000000	0.08228000000000	0.00000000000000	0.00000000000000	0.00000000000000	0.00000000000000	0.00000000000000	0.00000000000000	0.00000000000000	22.72098700000000	0.00000000000000	0.00000000000000	0.00000000000000	0.00000000000000	
8.91163500000000	62.03077900000000	762.82803100000001	49.51469800000000	0.34275000000000	0.00000000000000	0.08230800000000	0.00000000000000	0.00000000000000	0.00000000000000	0.00000000000000	0.00000000000000	0.00000000000000	0.00000000000000	22.76421400000000	0.00000000000000	0.00000000000000	0.00000000000000	0.00000000000000	
8.91330700000000	61.34393100000000	763.61243000000002	49.60151800000000	0.34166200000000	0.00000000000000	0.08233500000000	0.00000000000000	0.00000000000000	0.00000000000000	0.00000000000000	0.00000000000000	0.00000000000000	0.00000000000000	22.80777800000000	0.00000000000000	0.00000000000000	0.00000000000000	0.00000000000000	
8.91496900000000	60.66786600000000	764.31739800000003	49.68578200000000	0.34060500000000	0.00000000000000	0.08236000000000	0.00000000000000	0.00000000000000	0.00000000000000	0.00000000000000	0.00000000000000	0.00000000000000	0.00000000000000	22.85123400000000	0.00000000000000	0.00000000000000	0.00000000000000	0.00000000000000	
8.91663600000000	60.00258500000000	764.94302900000002	49.76679100000000	0.33957700000000	0.00000000000000	0.08238300000000	0.00000000000000	0.00000000000000	0.00000000000000	0.00000000000000	0.00000000000000	0.00000000000000	0.00000000000000	22.89412500000000	0.00000000000000	0.00000000000000	0.00000000000000	0.00000000000000	
8.91831300000000	59.34803500000000	765.48948499999995	49.84384100000000	0.33857900000000	0.00000000000000	0.08240400000000	0.00000000000000	0.00000000000000	0.00000000000000	0.00000000000000	0.00000000000000	0.00000000000000	0.00000000000000	22.93598900000000	0.00000000000000	0.00000000000000	0.00000000000000	0.00000000000000	
8.91997400000000	58.70411600000000	765.95700699999998	49.91622800000000	0.33760900000000	0.00000000000000	0.08242300000000	0.00000000000000	0.00000000000000	0.00000000000000	0.00000000000000	0.00000000000000	0.00000000000000	0.00000000000000	22.97636000000000	0.00000000000000	0.00000000000000	0.00000000000000	0.00000000000000	
8.92163800000000	58.07068200000000	766.34592299999997	49.98325800000000	0.33666700000000	0.00000000000000	0.08243900000000	0.00000000000000	0.00000000000000	0.00000000000000	0.00000000000000	0.00000000000000	0.00000000000000	0.00000000000000	23.01477200000000	0.00000000000000	0.00000000000000	0.00000000000000	0.00000000000000	
8.92330500000000	57.44754500000000	766.65665200000001	50.04424600000000	0.33575100000000	0.00000000000000	0.08245400000000	0.00000000000000	0.00000000000000	0.00000000000000	0.00000000000000	0.00000000000000	0.00000000000000	0.00000000000000	23.05076300000000	0.00000000000000	0.00000000000000	0.00000000000000	0.00000000000000	
8.92499000000000	56.83448100000000	766.88970900000004	50.09852900000000	0.33486200000000	0.00000000000000	0.08246600000000	0.00000000000000	0.00000000000000	0.00000000000000	0.00000000000000	0.00000000000000	0.00000000000000	0.00000000000000	23.08387900000000	0.00000000000000	0.00000000000000	0.00000000000000	0.00000000000000	
8.92663800000000	56.23122900000000	767.04571199999998	50.14546800000000	0.33399600000000	0.00000000000000	0.08247600000000	0.00000000000000	0.00000000000000	0.00000000000000	0.00000000000000	0.00000000000000	0.00000000000000	0.00000000000000	23.11367600000000	0.00000000000000	0.00000000000000	0.00000000000000	0.00000000000000	
8.92830400000000	55.63750000000000	767.12538600000005	50.18445200000000	0.33315400000000	0.00000000000000	0.08248400000000	0.00000000000000	0.00000000000000	0.00000000000000	0.00000000000000	0.00000000000000	0.00000000000000	0.00000000000000	23.13972600000000	0.00000000000000	0.00000000000000	0.00000000000000	0.00000000000000	
8.92997000000000	55.05297600000000	767.12956499999996	50.21490400000000	0.33233400000000	0.00000000000000	0.08249000000000	0.00000000000000	0.00000000000000	0.00000000000000	0.00000000000000	0.00000000000000	0.00000000000000	0.00000000000000	23.16161500000000	0.00000000000000	0.00000000000000	0.00000000000000	0.00000000000000	
8.93163300000000	54.47731700000000	767.05919700000004	50.23628900000000	0.33153500000000	0.00000000000000	0.08249300000000	0.00000000000000	0.00000000000000	0.00000000000000	0.00000000000000	0.00000000000000	0.00000000000000	0.00000000000000	23.17895200000000	0.00000000000000	0.00000000000000	0.00000000000000	0.00000000000000	
8.93330500000000	53.91015900000000	766.91534500000000	50.24810900000000	0.33075500000000	0.00000000000000	0.08249400000000	0.00000000000000	0.00000000000000	0.00000000000000	0.00000000000000	0.00000000000000	0.00000000000000	0.00000000000000	23.19136600000000	0.00000000000000	0.00000000000000	0.00000000000000	0.00000000000000	
8.93497500000000	53.35112600000000	766.69918800000005	50.24991600000000	0.32999200000000	0.00000000000000	0.08249300000000	0.00000000000000	0.00000000000000	0.00000000000000	0.00000000000000	0.00000000000000	0.00000000000000	0.00000000000000	23.19851100000000	0.00000000000000	0.00000000000000	0.00000000000000	0.00000000000000	
8.93663500000000	52.79982300000000	766.41202199999998	50.24130900000000	0.32924500000000	0.00000000000000	0.08249000000000	0.00000000000000	0.00000000000000	0.00000000000000	0.00000000000000	0.00000000000000	0.00000000000000	0.00000000000000	23.20006900000000	0.00000000000000	0.00000000000000	0.00000000000000	0.00000000000000	
8.93830100000000	52.25584900000000	766.05526299999997	50.22193900000000	0.32851300000000	0.00000000000000	0.08248400000000	0.00000000000000	0.00000000000000	0.00000000000000	0.00000000000000	0.00000000000000	0.00000000000000	0.00000000000000	23.19574800000000	0.00000000000000	0.00000000000000	0.00000000000000	0.00000000000000	
8.93997200000000	51.71879300000000	765.63044200000002	50.19151200000000	0.32779300000000	0.00000000000000	0.08247600000000	0.00000000000000	0.00000000000000	0.00000000000000	0.00000000000000	0.00000000000000	0.00000000000000	0.00000000000000	23.18528800000000	0.00000000000000	0.00000000000000	0.00000000000000	0.00000000000000	
8.94163700000000	51.18823900000000	765.13920599999994	50.14978800000000	0.32708400000000	0.00000000000000	0.08246600000000	0.00000000000000	0.00000000000000	0.00000000000000	0.00000000000000	0.00000000000000	0.00000000000000	0.00000000000000	23.16846000000000	0.00000000000000	0.00000000000000	0.00000000000000	0.00000000000000	
8.94330400000000	50.66377100000000	764.58331699999997	50.09658300000000	0.32638400000000	0.00000000000000	0.08245500000000	0.00000000000000	0.00000000000000	0.00000000000000	0.00000000000000	0.00000000000000	0.00000000000000	0.00000000000000	23.14506800000000	0.00000000000000	0.00000000000000	0.00000000000000	0.00000000000000	
8.94496700000000	50.14497100000000	763.96464900000001	50.03177400000000	0.32569100000000	0.00000000000000	0.08244100000000	0.00000000000000	0.00000000000000	0.00000000000000	0.00000000000000	0.00000000000000	0.00000000000000	0.00000000000000	23.11494700000000	0.00000000000000	0.00000000000000	0.00000000000000	0.00000000000000	
8.94663600000000	49.63142800000000	763.28518499999996	49.95529200000000	0.32500400000000	0.00000000000000	0.08242500000000	0.00000000000000	0.00000000000000	0.00000000000000	0.00000000000000	0.00000000000000	0.00000000000000	0.00000000000000	23.07796800000000	0.00000000000000	0.00000000000000	0.00000000000000	0.00000000000000	
8.94830600000000	49.12273400000000	762.54701299999999	49.86712900000000	0.32432000000000	0.00000000000000	0.08240700000000	0.00000000000000	0.00000000000000	0.00000000000000	0.00000000000000	0.00000000000000	0.00000000000000	0.00000000000000	23.03403500000000	0.00000000000000	0.00000000000000	0.00000000000000	0.00000000000000	
